<svg width="75" height="147" viewBox="0 0 75 147" fill="none" xmlns="http://www.w3.org/2000/svg">
<path opacity="0.81" d="M24.1985 127.597C24.5019 128.733 25.0337 129.794 25.7623 130.719C26.491 131.643 27.4014 132.412 28.4391 132.978C29.4768 133.544 30.6205 133.896 31.8019 134.014C32.9832 134.131 34.1779 134.011 35.3145 133.661C36.4511 133.311 37.5063 132.738 38.4169 131.976C39.3275 131.214 40.0748 130.28 40.6142 129.228C41.1536 128.176 41.474 127.029 41.5562 125.854C41.6384 124.68 41.4807 123.503 41.0925 122.394C41.037 122.213 40.9497 122.055 40.8806 121.873L51.2011 115.624C52.1908 116.334 53.3208 116.831 54.5187 117.082C55.7166 117.333 56.9559 117.333 58.1571 117.082C59.3584 116.831 60.495 116.335 61.4942 115.624C62.4934 114.914 63.3331 114.006 63.9594 112.958C64.5857 111.91 64.9848 110.746 65.1311 109.539C65.2774 108.333 65.1677 107.111 64.809 105.952C64.4502 104.793 63.8504 103.723 63.0481 102.811C62.2457 101.898 61.2584 101.162 60.1495 100.652L64.7675 68.0832C65.7144 68.1186 66.6618 67.999 67.5715 67.7291C68.709 67.411 69.7721 66.8709 70.6982 66.1407C71.6242 65.4105 72.3945 64.5049 72.9634 63.4775C73.5323 62.45 73.8884 61.3215 74.0107 60.1585C74.133 58.9955 74.0189 57.8216 73.6753 56.7059C73.3317 55.5903 72.7655 54.5557 72.0101 53.663C71.2546 52.7703 70.3253 52.0377 69.2769 51.5084C68.2285 50.9791 67.0823 50.6638 65.9059 50.5812C64.7294 50.4985 63.5467 50.6501 62.4273 51.0271C62.1416 51.1241 61.8633 51.2418 61.5948 51.3791L50.3936 34.9948C51.5811 33.2594 52.102 31.1633 51.8614 29.0886C51.6207 27.0139 50.6346 25.099 49.0827 23.6929C47.5308 22.2868 45.5166 21.4833 43.4073 21.4289C41.2981 21.3745 39.2343 22.0727 37.5924 23.3964L16.9436 11.094C17.3507 9.56359 17.3213 7.95413 16.8587 6.44503C16.2538 4.44642 14.9425 2.73429 13.1639 1.62052C11.3852 0.506748 9.25745 0.0654611 7.16824 0.377046C5.07903 0.688631 3.1674 1.73235 1.78157 3.31808C0.395748 4.9038 -0.372039 6.926 -0.381925 9.0163L-11.7136 11.2708C-12.2839 10.0536 -13.1315 8.98533 -14.1903 8.14947C-15.2491 7.31362 -16.4903 6.73279 -17.8169 6.45239C-19.1436 6.17198 -20.5198 6.19958 -21.8381 6.53304C-23.1563 6.86649 -24.3809 7.49677 -25.416 8.37462C-26.4512 9.25247 -27.269 10.3541 -27.8055 11.5935C-28.342 12.8329 -28.5827 14.1765 -28.5088 15.5192C-28.4348 16.862 -28.0483 18.1675 -27.3793 19.3339C-26.7103 20.5004 -25.777 21.496 -24.6524 22.2431L-25.4232 28.6333L-25.6052 28.6702C-27.7076 29.3269 -29.4916 30.7362 -30.6072 32.6216C-31.7229 34.507 -32.0897 36.7326 -31.6356 38.8617C-31.1816 40.9908 -29.9396 42.8698 -28.1531 44.1301C-26.3666 45.3905 -24.1647 45.9412 -21.9792 45.6743L-20.0011 52.0968C-21.6824 53.1665 -22.9512 54.7673 -23.5997 56.6373C-24.2482 58.5072 -24.238 60.5356 -23.5709 62.3905C-22.9038 64.2454 -21.6192 65.8169 -19.9273 66.848C-18.2355 67.8791 -16.2365 68.3086 -14.2575 68.0664L-9.29086 86.3263C-10.0414 88.0046 -10.2282 89.874 -9.82381 91.6581C-9.41939 93.4422 -8.44516 95.0463 -7.04514 96.2332C-9.53825 108.171 -15.0727 119.298 -23.1211 128.554C-24.2496 128.451 -25.389 128.57 -26.4738 128.905C-27.9208 129.342 -29.233 130.138 -30.2852 131.217C-31.3374 132.297 -32.0945 133.624 -32.4842 135.071C-32.8739 136.518 -32.8832 138.038 -32.5113 139.484C-32.1394 140.931 -31.3986 142.257 -30.3596 143.335C-29.3207 144.414 -28.0183 145.209 -26.5766 145.644C-25.135 146.079 -23.6023 146.141 -22.1248 145.823C-20.6472 145.505 -19.2742 144.817 -18.1367 143.826C-16.9992 142.835 -16.1352 141.574 -15.6271 140.163C-12.2272 135.912 -8.0134 132.367 -3.23008 129.733C-2.32875 131.023 -1.08786 132.044 0.359346 132.685C1.80656 133.326 3.40542 133.564 4.98425 133.372C6.56307 133.181 8.06221 132.567 9.32071 131.598C10.5792 130.628 11.5495 129.339 12.1274 127.869L24.1985 127.597ZM33.6579 128.282C33.0014 128.483 32.3008 128.487 31.6446 128.294C30.9884 128.101 30.4059 127.719 29.9708 127.197C29.5356 126.675 29.2673 126.036 29.1998 125.361C29.1322 124.685 29.2684 124.004 29.5911 123.402C29.9138 122.801 30.4086 122.306 31.013 121.981C31.6174 121.657 32.3043 121.516 32.987 121.576C33.6697 121.637 34.3175 121.897 34.8486 122.323C35.3798 122.75 35.7705 123.323 35.9713 123.971C36.2398 124.843 36.1469 125.787 35.7131 126.595C35.2792 127.404 34.5399 128.011 33.6579 128.282ZM39.3311 119.248C38.2966 118.073 36.96 117.197 35.4614 116.713C33.9628 116.229 32.3575 116.154 30.814 116.496L28.8054 109.974C29.9255 109.524 30.9415 108.85 31.7904 107.996C32.6393 107.142 33.303 106.125 33.7401 105.009L47.6396 109.689C47.7706 111.021 48.2514 112.294 49.0343 113.381L39.3311 119.248ZM2.48693 116.112L1.66206 97.908C3.54515 97.2542 5.15048 95.9845 6.21216 94.3092L17.5796 98.2601C16.9087 99.612 16.6145 101.115 16.7278 102.612C16.841 104.11 17.3576 105.547 18.2237 106.775L9.08265 117.565C8.13734 116.903 7.06783 116.434 5.9358 116.185C4.80377 115.935 3.6316 115.911 2.48693 116.112ZM39.4421 38.1068L34.181 65.7205C32.533 65.6775 30.9084 66.1401 29.5297 67.0448L16.9062 54.2451C17.5799 53.1873 18.0174 52.0001 18.1891 50.7638C18.3609 49.5275 18.263 48.2708 17.902 47.0786C17.8766 47.01 17.8479 46.9446 17.8158 46.8823L35.9633 35.2865C36.8538 36.5116 38.0528 37.4836 39.4421 38.1068ZM47.8283 106.536L34.336 101.984C34.3937 100.498 34.0497 99.0267 33.3395 97.7214C32.6293 96.4161 31.5787 95.3247 30.2963 94.56L34.5093 83.1287C35.615 83.1371 36.7076 82.8771 37.6918 82.3715L50.5735 102.015C49.22 103.212 48.2661 104.788 47.8401 106.532M22.2276 102.93C22.029 102.281 22.0295 101.587 22.229 100.936C22.4286 100.285 22.8182 99.7051 23.3488 99.2708C23.8793 98.8365 24.5269 98.5668 25.2097 98.4958C25.8925 98.4248 26.5799 98.5557 27.185 98.872C27.7901 99.1883 28.2858 99.6757 28.6094 100.273C28.933 100.87 29.07 101.549 29.0031 102.226C28.9362 102.903 28.6684 103.546 28.2335 104.074C27.7987 104.603 27.2162 104.993 26.5599 105.195C25.6784 105.465 24.7271 105.378 23.9148 104.953C23.1026 104.529 22.4958 103.801 22.2276 102.93ZM30.8404 75.4436C30.6419 74.7948 30.6423 74.101 30.8416 73.4498C31.041 72.7986 31.4303 72.2193 31.9604 71.7849C32.4905 71.3505 33.1377 71.0806 33.8202 71.0092C34.5027 70.9378 35.1899 71.0681 35.7951 71.3837C36.4003 71.6994 36.8963 72.1861 37.2204 72.7825C37.5446 73.3789 37.6823 74.0583 37.6164 74.7347C37.5504 75.4112 37.2837 76.0545 36.8498 76.5833C36.4159 77.1122 35.8344 77.5029 35.1786 77.7061C34.2971 77.9759 33.3458 77.889 32.5335 77.4645C31.7213 77.04 31.1086 76.3143 30.8404 75.4436ZM12.7908 48.6465C12.9906 49.2952 12.9914 49.9892 12.793 50.641C12.5946 51.2927 12.206 51.8728 11.6762 52.3081C11.1465 52.7433 10.4994 53.0141 9.81667 53.0863C9.13397 53.1585 8.44634 53.0287 7.84065 52.7135C7.23497 52.3983 6.73841 51.9118 6.41374 51.3154C6.08906 50.7189 5.95083 50.0394 6.01652 49.3627C6.08221 48.6859 6.34886 48.0423 6.78279 47.5132C7.21672 46.984 7.79845 46.5931 8.45446 46.3898C9.33653 46.1181 10.2891 46.2039 11.1027 46.6282C11.9163 47.0525 12.5241 47.7806 12.7926 48.6523M12.0398 58.0306C13.0689 57.7108 14.0296 57.2031 14.8722 56.534L27.2435 69.0802C26.3623 70.19 25.7642 71.4929 25.5004 72.8775C25.2366 74.2621 25.3149 75.6871 25.7287 77.0307L25.7835 77.1667L3.46161 81.2775L-6.44496 59.45C-6.43798 58.9494 -6.47551 58.4494 -6.55712 57.9559L1.56374 53.563C2.48292 55.4207 4.04116 56.8899 5.96019 57.7083C7.87921 58.5267 10.034 58.6409 12.0398 58.0306ZM-11.9299 58.3815C-11.7314 59.0303 -11.7318 59.724 -11.9311 60.3752C-12.1305 61.0264 -12.5198 61.6057 -13.0499 62.0401C-13.58 62.4745 -14.2272 62.7444 -14.9097 62.8158C-15.5922 62.8872 -16.2795 62.7569 -16.8846 62.4413C-17.4898 62.1256 -17.9858 61.6389 -18.3099 61.0425C-18.6341 60.4461 -18.7719 59.7668 -18.7059 59.0903C-18.6399 58.4138 -18.3732 57.7706 -17.9393 57.2417C-17.5054 56.7129 -16.9239 56.3222 -16.2681 56.1189C-15.386 55.8473 -14.4334 55.933 -13.6199 56.3573C-12.8063 56.7816 -12.1984 57.5097 -11.9299 58.3815ZM-7.79457 63.9612L-0.058001 81.024C-1.29171 80.8586 -2.54875 80.9605 -3.74237 81.3226C-4.93599 81.6848 -6.03777 82.2985 -6.97172 83.1216L-11.3148 67.1792C-9.86083 66.4544 -8.64054 65.3389 -7.79457 63.9612ZM27.3144 79.9818C28.3773 81.265 29.789 82.2197 31.3846 82.7345L27.4544 93.4098C26.0394 93.0786 24.5599 93.1139 23.1578 93.5123C21.7557 93.9107 20.4782 94.6588 19.4481 95.6847L7.39062 91.4813C7.69854 90.173 7.69108 88.8134 7.36885 87.5127C7.04662 86.212 6.4187 85.0069 5.53607 83.9952L27.3144 79.9818ZM59.6947 107.524C59.8946 108.173 59.8953 108.867 59.6967 109.519C59.498 110.171 59.1091 110.752 58.5789 111.187C58.0488 111.622 57.4013 111.892 56.7183 111.964C56.0353 112.036 55.3475 111.906 54.7418 111.59C54.1362 111.274 53.6399 110.787 53.3158 110.19C52.9917 109.593 52.8542 108.913 52.9208 108.236C52.9875 107.559 53.2552 106.915 53.6901 106.387C54.125 105.858 54.7076 105.468 55.3642 105.266C56.2457 104.996 57.197 105.083 58.0093 105.507C58.8215 105.932 59.4265 106.653 59.6947 107.524ZM57.164 99.8515C56.0334 99.7488 54.8919 99.8687 53.8054 100.204C53.5994 100.268 53.4194 100.374 53.217 100.449L40.2552 80.6711C41.4334 79.552 42.2774 78.1333 42.6933 76.5727C43.1092 75.0121 43.0807 73.3707 42.6109 71.831C42.5339 71.5808 42.3998 71.3546 42.3069 71.1157L57.09 63.2441C58.0503 65.1909 59.7126 66.7074 61.751 67.4964L57.164 99.8515ZM68.3302 58.349C68.53 58.9977 68.5307 59.6918 68.3324 60.3435C68.134 60.9952 67.7453 61.5754 67.2156 62.0106C66.6858 62.4458 66.0387 62.7167 65.356 62.7888C64.6733 62.861 63.9857 62.7313 63.38 62.4161C62.7743 62.1009 62.2778 61.6143 61.9531 61.0179C61.6284 60.4215 61.4902 59.742 61.5559 59.0652C61.6216 58.3885 61.8882 57.7449 62.3222 57.2157C62.7561 56.6866 63.3378 56.2956 63.9938 56.0923C64.8749 55.821 65.8263 55.9062 66.6393 56.3293C67.4523 56.7524 68.0605 57.4788 68.3302 58.349ZM59.013 53.0405C58.0246 53.9551 57.2586 55.0797 56.7732 56.3286C56.2878 57.5774 56.0959 58.9176 56.2121 60.247L40.6826 68.5205C39.7287 67.4958 38.5397 66.7133 37.2148 66.2383L42.4227 38.8702C44.4825 39.0507 46.5419 38.4686 48.2032 37.2364L59.013 53.0405ZM46.4446 29.1412C46.6444 29.7898 46.6451 30.4839 46.4467 31.1356C46.2483 31.7873 45.8597 32.3675 45.33 32.8027C44.8002 33.238 44.1531 33.5088 43.4704 33.581C42.7877 33.6531 42.1001 33.5234 41.4944 33.2082C40.8887 32.893 40.3922 32.4064 40.0675 31.81C39.7428 31.2136 39.6046 30.5341 39.6703 29.8573C39.736 29.1806 40.0026 28.537 40.4365 28.0078C40.8705 27.4787 41.4522 27.0878 42.1082 26.8844C42.9893 26.6131 43.9407 26.6983 44.7537 27.1214C45.5667 27.5445 46.1749 28.2709 46.4446 29.1412ZM34.6237 32.5272L16.3591 44.2035C15.2286 42.8029 13.6883 41.7831 11.947 41.2823L10.8439 17.4248L10.9847 17.4006C12.9071 16.7984 14.5651 15.5588 15.6784 13.8913L35.5662 25.7529C34.9573 26.7631 34.5597 27.8833 34.3975 29.0463C34.2352 30.2094 34.3115 31.3914 34.6219 32.5214M-18.6496 18.3178C-19.3062 18.5201 -20.0074 18.5253 -20.6644 18.333C-21.3214 18.1406 -21.9047 17.7592 -22.3407 17.2371C-22.7766 16.7149 -23.0455 16.0755 -23.1135 15.3996C-23.1814 14.7236 -23.0453 14.0416 -22.7223 13.4398C-22.3993 12.8379 -21.904 12.3432 -21.299 12.0182C-20.694 11.6933 -20.0064 11.5527 -19.3233 11.6142C-18.6402 11.6756 -17.9922 11.9365 -17.4612 12.3637C-16.9302 12.7909 -16.5401 13.3653 -16.3402 14.0142C-16.0739 14.8844 -16.1674 15.826 -16.6003 16.6326C-17.0331 17.4393 -17.77 18.0452 -18.6496 18.3178ZM-10.863 14.1998L0.118294 12.0214C0.689957 13.6124 1.71817 15.001 3.07736 16.0177C4.43656 17.0344 6.06792 17.6352 7.77224 17.7467L8.84735 40.9695C7.6521 41.0338 6.48488 41.3629 5.4317 41.9323L-12.298 19.7309C-11.2097 18.0926 -10.707 16.1431 -10.8707 14.1958M11.7281 8.01252C11.9279 8.66121 11.9286 9.35526 11.7302 10.007C11.5318 10.6587 11.1432 11.2388 10.6134 11.6741C10.0837 12.1093 9.43657 12.3801 8.75388 12.4523C8.07119 12.5245 7.38356 12.3948 6.77787 12.0796C6.17218 11.7644 5.67563 11.2778 5.35095 10.6814C5.02628 10.085 4.88805 9.40544 4.95374 8.72869C5.01943 8.05194 5.28608 7.40833 5.72001 6.87918C6.15394 6.35004 6.73566 5.95912 7.39168 5.7558C8.27272 5.48444 9.22418 5.56967 10.0372 5.99277C10.8502 6.41587 11.4583 7.14227 11.7281 8.01252ZM-21.7145 23.5165C-20.4684 23.8305 -19.1644 23.8572 -17.9024 23.5944C-16.6405 23.3316 -15.4543 22.7863 -14.4347 22.0005L2.98044 43.8083C2.18137 44.6684 1.56347 45.6772 1.16331 46.7752C0.763151 47.8733 0.588835 49.0381 0.650682 50.201L-17.8956 44.0343C-16.4294 42.9876 -15.3203 41.5223 -14.7184 39.8365C-14.1165 38.1508 -14.051 36.326 -14.5305 34.6092C-15.01 32.8924 -16.0116 31.3665 -17.3996 30.2379C-18.7876 29.1092 -20.495 28.4325 -22.2909 28.2991L-21.7145 23.5165ZM-26.3634 38.0311C-26.562 37.3823 -26.5615 36.6885 -26.3622 36.0373C-26.1629 35.3861 -25.7736 34.8068 -25.2434 34.3724C-24.7133 33.938 -24.0661 33.6681 -23.3836 33.5967C-22.7011 33.5253 -22.0139 33.6556 -21.4087 33.9712C-20.8035 34.2869 -20.3076 34.7736 -19.9834 35.37C-19.6593 35.9664 -19.5215 36.6457 -19.5874 37.3222C-19.6534 37.9987 -19.9202 38.642 -20.354 39.1708C-20.7879 39.6996 -21.3695 40.0904 -22.0252 40.2936C-22.9073 40.5653 -23.8599 40.4795 -24.6735 40.0552C-25.487 39.6309 -26.0949 38.9028 -26.3634 38.0311ZM-0.798347 51.8574L-7.55308 55.078C-8.47946 53.4484 -9.91403 52.1617 -11.6436 51.4092C-13.3732 50.6567 -15.3055 50.4786 -17.1533 50.9012L-18.4076 46.829L-0.798347 51.8574ZM-4.53158 90.6884C-4.73013 90.0396 -4.72972 89.3458 -4.53038 88.6946C-4.33105 88.0434 -3.94174 87.4641 -3.4116 87.0297C-2.88147 86.5953 -2.2343 86.3254 -1.55179 86.254C-0.869282 86.1826 -0.18206 86.3129 0.423105 86.6286C1.02827 86.9442 1.52425 87.4309 1.8484 88.0273C2.17256 88.6237 2.31035 89.3031 2.24438 89.9795C2.17841 90.656 1.91164 91.2993 1.47777 91.8281C1.04389 92.357 0.462352 92.7477 -0.193408 92.9509C-1.07548 93.2226 -2.02807 93.1368 -2.84163 92.7125C-3.6552 92.2882 -4.26309 91.5601 -4.53158 90.6884ZM-27.2243 138.27C-27.4242 137.621 -27.4248 136.926 -27.2262 136.274C-27.0276 135.622 -26.6386 135.042 -26.1085 134.607C-25.5783 134.172 -24.9308 133.901 -24.2478 133.83C-23.5648 133.758 -22.877 133.888 -22.2714 134.204C-21.6658 134.52 -21.1695 135.007 -20.8454 135.604C-20.5213 136.201 -20.3838 136.881 -20.4504 137.558C-20.517 138.235 -20.7847 138.878 -21.2197 139.407C-21.6546 139.936 -22.2372 140.326 -22.8938 140.528C-23.7743 140.798 -24.7245 140.711 -25.5361 140.288C-26.3478 139.865 -26.9549 139.139 -27.2243 138.27ZM-15.4515 134.644C-15.7932 133.535 -16.3559 132.506 -17.1063 131.618C-17.8568 130.73 -18.78 130.001 -19.8215 129.474C-12.1257 120.327 -6.78103 109.478 -4.24899 97.8624C-3.45811 98.1508 -2.62793 98.3222 -1.78509 98.371L-0.624421 117.268C-2.25576 118.262 -3.51986 119.752 -4.22591 121.514C-4.93194 123.275 -5.04158 125.213 -4.53827 127.034C-8.62941 129.081 -12.2906 131.884 -15.3227 135.292C-15.3714 135.071 -15.3852 134.859 -15.4515 134.644ZM0.632817 125.702C0.433022 125.054 0.432274 124.36 0.630668 123.708C0.829061 123.056 1.21769 122.476 1.74745 122.041C2.2772 121.606 2.92431 121.335 3.60701 121.263C4.2897 121.19 4.97733 121.32 5.58301 121.635C6.1887 121.951 6.68525 122.437 7.00993 123.034C7.3346 123.63 7.47283 124.309 7.40715 124.986C7.34145 125.663 7.0748 126.307 6.64087 126.836C6.20695 127.365 5.62522 127.756 4.96921 127.959C4.08816 128.23 3.1367 128.145 2.3237 127.722C1.51068 127.299 0.902561 126.573 0.632817 125.702ZM12.7479 124.799C12.8446 122.981 12.3066 121.19 11.2244 119.727L20.3355 108.965C21.9061 110.093 23.8133 110.67 25.7585 110.607L27.9319 117.664C26.7545 118.415 25.7712 119.429 25.062 120.625C24.3529 121.821 23.9381 123.164 23.8514 124.545L12.7479 124.799Z" fill="white"/>
</svg>
